<?xml version="1.0" encoding="utf-8"?>
<!-- Generator: Adobe Illustrator 22.0.1, SVG Export Plug-In . SVG Version: 6.00 Build 0)  -->
<svg version="1.1" id="Layer_1" xmlns="http://www.w3.org/2000/svg" xmlns:xlink="http://www.w3.org/1999/xlink" x="0px" y="0px"
	 viewBox="0 0 800 600" style="enable-background:new 0 0 800 600;" xml:space="preserve">
<path d="M514.85822,211.03191c0,0,14.13916,77.04414-19.68835,104.41957c0,0,11.72375-62.96136-31.18448-124.14867
	c-42.90826-61.18741-56.05075-68.70007-65.7085-120.56242c0,0-61.21979,37.26367-57.95535,86.85675
	c2.75601,41.85669,26.95847,83.51747-1.47525,104.38852c0,0-11.29684-46.03702-38.05881-66.33981
	c0,0-0.31796,44.15642-34.99207,83.49063c-35.67886,40.47333-104.71555,148.90747,107.44171,250.12311l0.11539-0.00269
	l4.28818-100.33853H341.4086l-26.25232-22.01904v-43.19119l26.147-22.2308l32.10208,0.21146l11.00995-15.24393h27.1001
	l11.00995,15.24393l32.10168-0.21146l26.14862,22.2308v43.19119l-26.25394,22.01904h-36.23047l4.23853,99.18631l0.02017-0.00055
	c12.63651-7.1156,56.35983-31.89526,75.3945-44.74411C520.3194,468.2565,646.60608,399.88016,514.85822,211.03191z"/>
</svg>
