<?xml version="1.0" encoding="utf-8"?>
<!-- Generator: Adobe Illustrator 22.0.1, SVG Export Plug-In . SVG Version: 6.00 Build 0)  -->
<svg version="1.1" id="Layer_1" xmlns="http://www.w3.org/2000/svg" xmlns:xlink="http://www.w3.org/1999/xlink" x="0px" y="0px"
	 viewBox="0 0 800 600" style="enable-background:new 0 0 800 600;" xml:space="preserve">
<g>
	<path d="M44.25422,401.3096h-33.1832l36.77711-199.62991h42.57766l36.77712,199.62991h-33.1832l-6.07986-44.23495H50.33408
		L44.25422,401.3096z M55.31528,327.20602h27.64336l-13.54701-85.70464H68.8623L55.31528,327.20602z"/>
	<path d="M147.1091,401.3096V201.67969h91.79384v29.86861h-57.51198v51.42278h44.23497v29.85931h-44.23497v58.61993h61.38521
		v29.85928H147.1091z"/>
	<path d="M289.7764,231.54829h-33.1832v-29.86861h100.64825v29.86861h-33.1832V401.3096H289.7764V231.54829z"/>
	<path d="M377.42697,401.3096V201.67969h34.28186v81.29138h36.4978v-81.29138h34.28186V401.3096h-34.28186v-88.47922h-36.4978
		v88.47922H377.42697z"/>
	<path d="M535.57788,401.3096h-33.1832l36.77713-199.62991h42.57764l36.77716,199.62991h-33.18323l-6.07983-44.23495h-37.60577
		L535.57788,401.3096z M546.63898,327.20602h27.64331l-13.547-85.70464h-0.54932L546.63898,327.20602z"/>
	<path d="M760.83588,260.60184c0,0,6.23969,34.00003-8.6886,46.08093c0,0,5.17377-27.78519-13.76184-54.78749
		c-18.93567-27.00235-24.73553-30.31773-28.99756-53.20488c0,0-27.01666,16.44466-25.57605,38.33037
		c1.21625,18.47159,11.89697,36.85674-0.651,46.06725c0,0-4.98535-20.31641-16.79559-29.27614c0,0-0.14032,19.4865-15.4422,36.84489
		c-15.74524,17.86111-46.21155,65.71371,47.41467,110.38074l0.0509-0.00119l1.8924-44.27994h-15.98944l-11.58527-9.71713V327.9787
		l11.53882-9.81058l14.16681,0.09332l4.85876-6.72723h11.95941l4.85876,6.72723l14.16663-0.09332l11.53955,9.81058v19.06055
		l-11.586,9.71713h-15.98871l1.87048,43.77145l0.00891-0.00021c5.57654-3.14017,24.87189-14.07559,33.27203-19.74585
		C763.24591,374.11652,818.97693,343.94165,760.83588,260.60184z"/>
</g>
</svg>
